<?xml version="1.0" encoding="UTF-8"?><svg id="Layer_2" xmlns="http://www.w3.org/2000/svg" viewBox="0 0 146.61 48.31"><g id="Layer_1-2"><g><g><polygon points="66.49 29.5 65.18 30.8 55.77 31.22 55.86 29.97 64.81 29.57 65.34 29.55 66.49 29.5"/><polygon points="70.12 12.98 68.8 14.3 56.97 14.56 57.07 13.28 68.71 13.01 68.99 13.01 70.12 12.98"/><path d="M102.65,32.35c-.46,.71-1.13,1.27-1.99,1.36l-8.64,.83,.09-1.16,10.37-.99c.05,0,.12-.02,.18-.04Z"/><polygon points="90.31 45.84 89.04 47.11 77.49 48.31 78.88 13.91 75.14 14.05 76.22 2.68 77.49 1.41 77.38 2.61 77.33 3.09 76.41 12.73 80.19 12.61 78.79 47.04 88.81 46 89.13 45.96 90.31 45.84"/><path d="M138.74,45.4c-1.57,1.5-3.86,2.45-7.37,2.47l-7.42,.07c-7.55,.05-11.28-2.29-11.35-12.32l-.19-22.14c-.04-4.67,.53-7.86,2.45-9.57-.9,1.99-1.15,4.65-1.13,7.81l.19,22.16c.04,4.99,.97,8.25,2.96,10.21,1.78,1.75,4.43,2.54,8.55,2.54h.3l7.42-.07c2.35-.02,4.16-.44,5.59-1.15Z"/></g><path d="M33.8,3.56C31.33,1.23,27.13,.21,21.33,.53L3.86,1.46l-.05,.32-.12,.92-.14,.97-1.27,8.92,4-.12-1.46,33.38,14.51-.55c5.55-.21,9.03-2.2,11.16-4.73,1.5-1.75,2.36-3.77,2.84-5.62,1.13-4.34,3.21-17.12,3.21-23.93,0-3.23-.92-5.73-2.73-7.46Zm-11.37,28.65c-.63,2.08-.92,3.01-2.66,3.05h-.09c-.07,0-.16,0-.23-.02l-3.19-.07,1.43-20.58,.16-2.19,4.02-.07h.02c.88,0,2.84,.02,2.84,1.66,0,2.34-1.9,16.93-2.29,18.21Z"/><path d="M23.84,14c0,2.2-1.89,16.75-2.26,17.95-.56,1.9-.76,2.34-1.5,2.4,.05-.16,.11-.32,.16-.49,.39-1.27,2.27-15.82,2.27-18.09,0-1.08-1.2-1.22-2.4-1.22l-1.53,.04,.09-1.29,3.21-.07c1.62,0,1.96,.32,1.96,.78Z"/><polygon points="71.95 .18 70.19 12.01 70.19 12.02 70.17 12.1 69.11 12.11 68.64 12.13 56.24 12.41 56.08 14.58 55.8 18.14 67.9 17.63 66.54 28.62 65.45 28.67 64.55 28.7 55.04 29.13 54.89 31.26 54.66 34.13 68.78 33.38 67.25 45.1 67.14 45.1 66.15 45.14 65.39 45.17 43.21 45.96 44.55 12.66 41.22 12.71 42.24 3.54 42.31 2.96 42.46 1.73 42.54 1.73 71.95 .18"/><g><path d="M108.94,3.91c-2.17-2.77-6.56-4.07-12.39-3.7l-18.16,1.13v.05l-.11,1.16-.09,.85-.79,8.43,3.7-.14-1.39,34.36,8.92-.93,.55-.05,1.22-.12,.02-.12,.72-10.19,.14-2.06,11.11-1.04c.28-.04,.53-.12,.76-.26,.65-.39,1.13-1.15,1.32-1.83l5.27-16.52c1.2-3.68,.92-6.79-.79-8.99Zm-10.47,10.83l-2.35,9.13c-.19,.67-.78,.97-1.25,.97l-.79,.07-2.36,.23,.86-10.98,.16-2.1,3.68-.21c.6-.04,1.45,0,1.9,.56,.39,.48,.42,1.18,.14,2.33Z"/><path d="M97.61,14.53l-2.35,9.12c-.09,.32-.37,.32-.44,.32l-.51,.05,1.97-7.62c.44-1.78,.05-2.42-1.59-2.34l-1.22,.07,.09-1.23,2.91-.16c.62-.04,1,.05,1.16,.25,.18,.23,.18,.74-.04,1.55Z"/></g><g><path d="M144.33,2.89c-1.82-1.92-4.73-2.89-8.67-2.89-.67,0-1.37,.04-2.1,.09l-12.89,.95c-1.89,.14-3.26,.71-4.21,1.85-1.36,1.6-1.89,4.39-1.85,8.82l.19,22.14c.04,4.76,.88,7.81,2.7,9.59,1.64,1.62,4.16,2.29,8.22,2.29l7.42-.07c3.54-.04,5.8-1.02,7.28-2.59,1.94-2.06,2.57-5.13,3.01-8.39l2.98-22.14c.58-4.32-.12-7.56-2.08-9.64Zm-9.93,9.82l-1.97,21.69c-.05,.79-.14,2.12-1.99,2.19l-.25,.02-2.61,.11h-.19c-.58,0-.99-.12-1.25-.39-.42-.39-.42-.97-.41-1.59v-.11l.12-20.82c0-.07,0-.16,.02-.23,.05-1.38,.67-2.08,1.89-2.24l4.44-.63c.55-.07,1.32-.12,1.8,.35,.48,.44,.46,1.16,.41,1.66Z"/><path d="M133.52,12.62l-1.96,21.51-.02,.21c-.05,.86-.12,1.32-1.15,1.36h-.14l1.94-21.28c.12-1.27-.32-1.71-1.71-1.52l-3.74,.53c.07-.92,.48-1.15,1.13-1.22l4.43-.65c.19-.02,.35-.04,.49-.04,.3,0,.49,.05,.6,.16,.12,.12,.18,.44,.12,.93Z"/></g><path d="M27.66,44.04c-2.22,1.9-5.43,3.28-10.08,3.46l-14.99,.56L4.06,14.69l-4.06,.12L1.71,2.8l1.25-1.25-.18,1.2-.07,.53L1.25,13.51l4.11-.14-1.46,33.39,15.46-.58c3.49-.14,6.21-.93,8.3-2.13Z"/><polygon points="67.17 46 65.87 47.3 40.99 48.19 42.33 14.86 38.96 14.93 40.3 3.07 41.56 1.82 41.42 3.01 41.38 3.33 40.23 13.61 43.64 13.56 42.3 46.88 65.59 46.05 66.03 46.03 67.17 46"/></g></g></svg>